#tb 0: 1/30
0,          0,          0,        1,   491520, 0x68ff12c0
0,          1,          1,        1,   491520, 0x22d36f0d
0,          2,          2,        1,   491520, 0xce6f877d
0,          3,          3,        1,   491520, 0x85d6744c
0,          4,          4,        1,   491520, 0x1aa85794
0,          5,          5,        1,   491520, 0x528d1274
0,          6,          6,        1,   491520, 0x357ec61c
